<?xml version="1.0" encoding="UTF-8"?>
<svg width="65px" height="70px" viewBox="0 0 65 70" version="1.1" xmlns="http://www.w3.org/2000/svg" xmlns:xlink="http://www.w3.org/1999/xlink">
    <!-- Generator: Sketch 46 (44423) - http://www.bohemiancoding.com/sketch -->
    <title>music-player</title>
    <desc>Created with Sketch.</desc>
    <defs></defs>
    <g id="Page-1" stroke="none" stroke-width="1" fill="none" fill-rule="evenodd">
        <g id="Desktop" transform="translate(-681.000000, -399.000000)" fill-rule="nonzero" fill="#EEEEEE">
            <g id="music-player" transform="translate(681.000000, 399.000000)">
                <path d="M64.5666667,0.315989359 C64.2913725,0.0754407293 63.9281373,-0.0340152608 63.5610784,0.0092580376 L24.0512745,5.11423451 C23.4165686,5.19696287 22.9411765,5.73533361 22.9411765,6.37552388 L22.9411765,14.033625 L22.9411765,19.394423 L22.9411765,51.7017585 C20.6139216,48.9080853 16.9165686,47.0906067 12.745098,47.0906067 C5.71745098,47.0906067 0,52.2286745 0,58.5453034 C0,64.8619322 5.71745098,70 12.745098,70 C19.7727451,70 25.4901961,64.8619322 25.4901961,58.5453034 C25.4901961,58.2500267 25.4659804,57.9598411 25.4404902,57.6709282 C25.4570588,57.5881998 25.4901961,57.5131079 25.4901961,57.4265613 L25.4901961,20.513165 L62.4509804,15.7365565 L62.4509804,38.973045 C60.1237255,36.1806445 56.4263725,34.363166 52.254902,34.363166 C45.2272549,34.363166 39.5098039,39.5012338 39.5098039,45.8178626 C39.5098039,52.1344915 45.2272549,57.2725593 52.254902,57.2725593 C59.2188235,57.2725593 64.8891176,52.2248563 64.9910784,45.9871376 C64.9910784,45.9705919 65,45.9565918 65,45.9400461 L65,14.2881738 L65,8.92864849 L65,1.27182016 C65,0.905269864 64.8419608,0.556537988 64.5666667,0.315989359 Z M12.745098,67.4545119 C7.12323529,67.4545119 2.54901961,63.4568227 2.54901961,58.5453034 C2.54901961,53.633784 7.12323529,49.6360949 12.745098,49.6360949 C18.3669608,49.6360949 22.9411765,53.633784 22.9411765,58.5453034 C22.9411765,63.4568227 18.3669608,67.4545119 12.745098,67.4545119 Z M52.254902,54.7270711 C46.6330392,54.7270711 42.0588235,50.729382 42.0588235,45.8178626 C42.0588235,40.9063433 46.6330392,36.9086541 52.254902,36.9086541 C57.8767647,36.9086541 62.4509804,40.9063433 62.4509804,45.8178626 C62.4509804,50.729382 57.8767647,54.7270711 52.254902,54.7270711 Z M25.4901961,17.9460402 L25.4901961,14.033625 L25.4901961,7.49426592 L62.4509804,2.71893017 L62.4509804,8.92864849 L62.4509804,13.1694317 L25.4901961,17.9460402 Z" id="Shape"></path>
            </g>
        </g>
    </g>
</svg>