<?xml version="1.0" encoding="UTF-8"?>
<svg width="47px" height="47px" viewBox="0 0 47 47" version="1.1" xmlns="http://www.w3.org/2000/svg" xmlns:xlink="http://www.w3.org/1999/xlink">
    <!-- Generator: Sketch 46 (44423) - http://www.bohemiancoding.com/sketch -->
    <title>pause (1)</title>
    <desc>Created with Sketch.</desc>
    <defs></defs>
    <g id="Page-1" stroke="none" stroke-width="1" fill="none" fill-rule="evenodd">
        <g id="Desktop" transform="translate(-814.000000, -117.000000)" fill-rule="nonzero" fill="#FFFFFF">
            <g id="pause-(1)" transform="translate(814.000000, 117.000000)">
                <path d="M23.5,0 C10.5421,0 0,10.5421 0,23.5 C0,36.4579 10.5421,47 23.5,47 C36.4579,47 47,36.4579 47,23.5 C47,10.5421 36.4579,0 23.5,0 Z M23.5,45.4333333 C11.4061167,45.4333333 1.56666667,35.5938833 1.56666667,23.5 C1.56666667,11.4061167 11.4061167,1.56666667 23.5,1.56666667 C35.5938833,1.56666667 45.4333333,11.4061167 45.4333333,23.5 C45.4333333,35.5938833 35.5938833,45.4333333 23.5,45.4333333 Z" id="Shape"></path>
                <path d="M27,36 L33,36 L33,11 L27,11 L27,36 Z M28.5,12.5625 L31.5,12.5625 L31.5,34.4375 L28.5,34.4375 L28.5,12.5625 Z" id="Shape"></path>
                <path d="M16,36 L22,36 L22,11 L16,11 L16,36 Z M17.5,12.5625 L20.5,12.5625 L20.5,34.4375 L17.5,34.4375 L17.5,12.5625 Z" id="Shape"></path>
            </g>
        </g>
    </g>
</svg>